<svg width="128" height="32" viewBox="0 0 128 32" fill="none" xmlns="http://www.w3.org/2000/svg">
<g clip-path="url(#clip0_1_3284)">
<path d="M18.8688 15.9998L6.99963 27.8689L10.2367 31.1059C11.4285 32.2978 13.3609 32.2978 14.5527 31.1059L27.5008 18.1578C28.6927 16.966 28.6927 15.0336 27.5008 13.8418L19.9478 6.2887L14.5527 11.6838L18.8688 15.9998Z" fill="#31007A"/>
<path d="M6.99963 4.13079L10.2367 0.89376C11.4285 -0.298083 13.3609 -0.298083 14.5527 0.89376L17.7897 4.13079L12.3947 9.52585L6.99963 4.13079Z" fill="#8700B8"/>
</g>
<path d="M111.003 13.0004H114.003L114.003 9.00037L123.003 9.00037L123.003 7.00037C123.003 6.44808 122.555 6.00037 122.003 6.00037L112.003 6.00037C111.45 6.00037 111.003 6.44808 111.003 7.00037L111.003 13.0004Z" fill="#31007A"/>
<path d="M114.003 18.0004L112.003 18.0004C111.45 18.0004 111.003 17.5527 111.003 17.0004L111.003 15.0004L114.003 15.0004L114.003 18.0004Z" fill="#8700B8"/>
<path d="M100.003 15.0004V13.0004H106.003V11.0004L100.003 11.0004L100.003 9.00037L109.003 9.00037V7.00037C109.003 6.44808 108.555 6.00037 108.003 6.00037H98.0026C97.9335 6.00037 97.8661 6.00736 97.801 6.02068C97.3453 6.11393 97.0026 6.51712 97.0026 7.00037V17.0004C97.0026 17.5527 97.4503 18.0004 98.0026 18.0004H108.003C108.555 18.0004 109.003 17.5527 109.003 17.0004V15.0004H100.003Z" fill="#31007A"/>
<path d="M83.0027 13.5004H86.0027V18.0004H84.0027C83.4504 18.0004 83.0027 17.5527 83.0027 17.0004V13.5004Z" fill="#31007A"/>
<path fill-rule="evenodd" clip-rule="evenodd" d="M84.0027 6.00037C83.4504 6.00037 83.0027 6.44808 83.0027 7.00037V15.0004H92.0027C93.6595 15.0004 95.0027 13.6572 95.0027 12.0004V9.00037C95.0027 7.34351 93.6595 6.00037 92.0027 6.00037H84.0027ZM91.0027 9.00037H86.0027V12.0004H91.0027C91.555 12.0004 92.0027 11.5527 92.0027 11.0004V10.0004C92.0027 9.44808 91.555 9.00037 91.0027 9.00037Z" fill="#31007A"/>
<path d="M81.0027 7.00037C81.0027 6.44808 80.555 6.00037 80.0027 6.00037H70.0027C69.4504 6.00037 69.0027 6.44808 69.0027 7.00037V17.0004C69.0027 17.5527 69.4504 18.0004 70.0027 18.0004H72.0027L72.0027 9.00037L73.5027 9.00037L73.5027 18.0004H76.5027L76.5027 9.00037L78.0027 9.00037L78.0027 18.0004H80.0027C80.555 18.0004 81.0027 17.5527 81.0027 17.0004V7.00037Z" fill="#31007A"/>
<path d="M55.0027 7.00037C55.0027 6.44808 55.4504 6.00037 56.0027 6.00037H58.0027V15.0004H64.0027V6.00037H66.0027C66.555 6.00037 67.0027 6.44808 67.0027 7.00037V17.0004C67.0027 17.5527 66.555 18.0004 66.0027 18.0004H56.0027C55.4504 18.0004 55.0027 17.5527 55.0027 17.0004V7.00037Z" fill="#31007A"/>
<path d="M50.0027 6.00037H52.0027C52.555 6.00037 53.0027 6.44808 53.0027 7.00037V9.00037H50.0027V6.00037Z" fill="#8700B8"/>
<path d="M53.0027 11.0004H50.0027V15.0004H41.0027V17.0004C41.0027 17.5527 41.4504 18.0004 42.0027 18.0004H52.0027C52.555 18.0004 53.0027 17.5527 53.0027 17.0004V11.0004Z" fill="#31007A"/>
<path d="M40.9985 27.8044V22.0648H44.866V23.0653H42.212V24.4329H44.667V25.4334H42.212V26.8039H44.8772V27.8044H40.9985Z" fill="#31007A"/>
<path d="M46.8897 22.0648L48.0471 24.021H48.092L49.255 22.0648H50.6254L48.8739 24.9346L50.6647 27.8044H49.269L48.092 25.8454H48.0471L46.8701 27.8044H45.48L47.2764 24.9346L45.5136 22.0648H46.8897Z" fill="#31007A"/>
<path d="M56.1088 24.0742H54.8813C54.8589 23.9154 54.8131 23.7743 54.744 23.651C54.6749 23.5258 54.5861 23.4193 54.4778 23.3315C54.3694 23.2437 54.2442 23.1765 54.1022 23.1298C53.9621 23.083 53.8098 23.0597 53.6454 23.0597C53.3483 23.0597 53.0896 23.1335 52.8691 23.2811C52.6486 23.4268 52.4777 23.6398 52.3562 23.9201C52.2348 24.1984 52.1741 24.5366 52.1741 24.9346C52.1741 25.3437 52.2348 25.6875 52.3562 25.9659C52.4796 26.2443 52.6514 26.4545 52.8719 26.5965C53.0924 26.7385 53.3474 26.8095 53.637 26.8095C53.7995 26.8095 53.9499 26.788 54.0882 26.745C54.2283 26.702 54.3526 26.6394 54.4609 26.5572C54.5693 26.4732 54.659 26.3713 54.73 26.2518C54.8028 26.1322 54.8533 25.9958 54.8813 25.8426L56.1088 25.8482C56.0771 26.1116 55.9977 26.3657 55.8706 26.6105C55.7454 26.8534 55.5763 27.071 55.3633 27.2635C55.1522 27.454 54.9 27.6054 54.6067 27.7175C54.3152 27.8277 53.9854 27.8828 53.6174 27.8828C53.1055 27.8828 52.6477 27.767 52.2441 27.5353C51.8425 27.3036 51.5248 26.9683 51.2913 26.5292C51.0596 26.0901 50.9438 25.5586 50.9438 24.9346C50.9438 24.3087 51.0615 23.7762 51.2969 23.3371C51.5323 22.8981 51.8518 22.5636 52.2554 22.3338C52.6589 22.1022 53.1129 21.9863 53.6174 21.9863C53.9499 21.9863 54.2582 22.033 54.5422 22.1265C54.8281 22.2199 55.0812 22.3563 55.3017 22.5356C55.5222 22.7131 55.7015 22.9308 55.8398 23.1886C55.9799 23.4464 56.0696 23.7416 56.1088 24.0742Z" fill="#31007A"/>
<path d="M56.9001 27.8044V22.0648H58.1136V24.4329H60.577V22.0648H61.7877V27.8044H60.577V25.4334H58.1136V27.8044H56.9001Z" fill="#31007A"/>
<path d="M63.6985 27.8044H62.3982L64.3796 22.0648H65.9434L67.9219 27.8044H66.6216L65.1839 23.3764H65.139L63.6985 27.8044ZM63.6173 25.5483H66.6888V26.4956H63.6173V25.5483Z" fill="#31007A"/>
<path d="M73.3346 22.0648V27.8044H72.2864L69.7894 24.1919H69.7473V27.8044H68.5338V22.0648H69.5988L72.0762 25.6744H72.1267V22.0648H73.3346Z" fill="#31007A"/>
<path d="M78.0641 23.9201C78.0248 23.7837 77.9697 23.6632 77.8987 23.5585C77.8277 23.452 77.7408 23.3624 77.6381 23.2895C77.5372 23.2148 77.4213 23.1578 77.2906 23.1185C77.1616 23.0793 77.0187 23.0597 76.8618 23.0597C76.5684 23.0597 76.3106 23.1326 76.0883 23.2783C75.8678 23.424 75.6959 23.6361 75.5726 23.9145C75.4493 24.191 75.3877 24.5291 75.3877 24.929C75.3877 25.3288 75.4484 25.6688 75.5698 25.9491C75.6913 26.2293 75.8631 26.4433 76.0855 26.5909C76.3078 26.7366 76.5703 26.8095 76.873 26.8095C77.1476 26.8095 77.3821 26.7609 77.5764 26.6637C77.7726 26.5647 77.9221 26.4255 78.0248 26.2462C78.1294 26.0668 78.1818 25.8547 78.1818 25.61L78.4284 25.6464H76.9487V24.7328H79.3504V25.4558C79.3504 25.9603 79.2439 26.3938 79.0309 26.7562C78.8179 27.1168 78.5246 27.3952 78.1509 27.5914C77.7773 27.7857 77.3494 27.8828 76.8674 27.8828C76.3293 27.8828 75.8566 27.7642 75.4493 27.5269C75.042 27.2878 74.7244 26.9487 74.4964 26.5096C74.2704 26.0687 74.1573 25.5455 74.1573 24.9402C74.1573 24.475 74.2246 24.0602 74.3591 23.6959C74.4955 23.3297 74.6861 23.0195 74.9308 22.7654C75.1756 22.5113 75.4605 22.318 75.7856 22.1853C76.1107 22.0527 76.4629 21.9863 76.8422 21.9863C77.1673 21.9863 77.4699 22.034 77.7502 22.1293C78.0304 22.2227 78.2789 22.3553 78.4956 22.5272C78.7142 22.6991 78.8927 22.9037 79.0309 23.141C79.1692 23.3764 79.2579 23.6361 79.2972 23.9201H78.0641Z" fill="#31007A"/>
<path d="M80.183 27.8044V22.0648H84.0505V23.0653H81.3965V24.4329H83.8515V25.4334H81.3965V26.8039H84.0617V27.8044H80.183Z" fill="#31007A"/>
<path d="M86.684 27.8044V22.0648H88.982C89.4043 22.0648 89.7565 22.1274 90.0386 22.2526C90.3207 22.3777 90.5327 22.5515 90.6747 22.7738C90.8167 22.9943 90.8877 23.2484 90.8877 23.5361C90.8877 23.7603 90.8429 23.9574 90.7532 24.1275C90.6635 24.2956 90.5402 24.4339 90.3833 24.5422C90.2282 24.6487 90.0507 24.7244 89.8508 24.7692V24.8253C90.0694 24.8346 90.274 24.8963 90.4646 25.0102C90.657 25.1242 90.813 25.284 90.9326 25.4895C91.0521 25.6931 91.1119 25.936 91.1119 26.2181C91.1119 26.5227 91.0363 26.7945 90.8849 27.0337C90.7355 27.2709 90.5141 27.4587 90.2207 27.597C89.9274 27.7352 89.5659 27.8044 89.1362 27.8044H86.684ZM87.8974 26.8123H88.8867C89.2249 26.8123 89.4715 26.7478 89.6266 26.6189C89.7817 26.4881 89.8592 26.3144 89.8592 26.0976C89.8592 25.9388 89.8209 25.7987 89.7443 25.6772C89.6677 25.5558 89.5584 25.4605 89.4164 25.3914C89.2763 25.3223 89.1091 25.2877 88.9148 25.2877H87.8974V26.8123ZM87.8974 24.4666H88.7971C88.9633 24.4666 89.1109 24.4376 89.2399 24.3797C89.3706 24.3199 89.4734 24.2358 89.5481 24.1275C89.6247 24.0191 89.663 23.8892 89.663 23.7379C89.663 23.5305 89.5892 23.3633 89.4416 23.2363C89.2959 23.1092 89.0885 23.0457 88.8195 23.0457H87.8974V24.4666Z" fill="#31007A"/>
<path d="M91.4863 22.0648H92.8455L94.1543 24.5366H94.2104L95.5191 22.0648H96.8784L94.7849 25.7753V27.8044H93.5798V25.7753L91.4863 22.0648Z" fill="#31007A"/>
<path d="M99.2099 27.8044V22.0648H100.423V26.8039H102.884V27.8044H99.2099Z" fill="#31007A"/>
<path d="M104.822 22.0648V27.8044H103.609V22.0648H104.822Z" fill="#31007A"/>
<path d="M106.417 27.8772C106.232 27.8772 106.073 27.8118 105.941 27.681C105.81 27.5484 105.744 27.3896 105.744 27.2046C105.744 27.0215 105.81 26.8646 105.941 26.7338C106.073 26.603 106.232 26.5376 106.417 26.5376C106.596 26.5376 106.753 26.603 106.888 26.7338C107.022 26.8646 107.09 27.0215 107.09 27.2046C107.09 27.3279 107.058 27.441 106.994 27.5437C106.933 27.6446 106.851 27.7259 106.751 27.7875C106.65 27.8473 106.538 27.8772 106.417 27.8772Z" fill="#31007A"/>
<path d="M108.013 27.8044V22.0648H111.814V23.0653H109.227V24.4329H111.561V25.4334H109.227V27.8044H108.013Z" fill="#31007A"/>
<path d="M113.764 22.0648V27.8044H112.551V22.0648H113.764Z" fill="#31007A"/>
<defs>
<clipPath id="clip0_1_3284">
<rect width="32" height="32" fill="white"/>
</clipPath>
</defs>
</svg>
