<svg width="111" height="32" viewBox="0 0 111 32" fill="none" xmlns="http://www.w3.org/2000/svg">
<path d="M93.3389 17.3338H97.3389L97.3389 12.0005L109.339 12.0005L109.339 9.33382C109.339 8.59744 108.742 8.00049 108.006 8.00049L94.6722 8.00049C93.9358 8.00049 93.3389 8.59744 93.3389 9.33382L93.3389 17.3338Z" fill="#31007A"/>
<path d="M97.3389 24.0005L94.6722 24.0005C93.9358 24.0005 93.3389 23.4035 93.3389 22.6672L93.3389 20.0005L97.3389 20.0005L97.3389 24.0005Z" fill="#8700B8"/>
<path d="M78.6721 20.0005V17.3338H86.6721V14.6672L78.6721 14.6672L78.6721 12.0005L90.6721 12.0005V9.33382C90.6721 8.59744 90.0752 8.00049 89.3388 8.00049H76.0055C75.9134 8.00049 75.8235 8.00982 75.7367 8.02758C75.1292 8.15191 74.6721 8.68949 74.6721 9.33382V22.6672C74.6721 23.4035 75.2691 24.0005 76.0055 24.0005H89.3388C90.0752 24.0005 90.6721 23.4035 90.6721 22.6672V20.0005H78.6721Z" fill="#31007A"/>
<path d="M56.0055 18.0005H60.0055V24.0005H57.3388C56.6024 24.0005 56.0055 23.4035 56.0055 22.6672V18.0005Z" fill="#31007A"/>
<path fill-rule="evenodd" clip-rule="evenodd" d="M57.3388 8.00049C56.6024 8.00049 56.0055 8.59744 56.0055 9.33382V20.0005H68.0055C70.2146 20.0005 72.0055 18.2096 72.0055 16.0005V12.0005C72.0055 9.79135 70.2146 8.00049 68.0055 8.00049H57.3388ZM66.6722 12.0005H60.0055V16.0005H66.6722C67.4085 16.0005 68.0055 15.4035 68.0055 14.6672V13.3338C68.0055 12.5974 67.4085 12.0005 66.6722 12.0005Z" fill="#31007A"/>
<path d="M53.3389 9.33382C53.3389 8.59744 52.7419 8.00049 52.0055 8.00049H38.6722C37.9358 8.00049 37.3389 8.59744 37.3389 9.33382V22.6672C37.3389 23.4035 37.9358 24.0005 38.6722 24.0005H41.3389L41.3389 12.0005L43.3389 12.0005L43.3389 24.0005H47.3389L47.3389 12.0005L49.3389 12.0005L49.3389 24.0005H52.0055C52.7419 24.0005 53.3389 23.4035 53.3389 22.6672V9.33382Z" fill="#31007A"/>
<path d="M18.6721 9.33382C18.6721 8.59744 19.2691 8.00049 20.0055 8.00049H22.6721V20.0005H30.6721V8.00049H33.3388C34.0752 8.00049 34.6721 8.59744 34.6721 9.33382V22.6672C34.6721 23.4035 34.0752 24.0005 33.3388 24.0005H20.0055C19.2691 24.0005 18.6721 23.4035 18.6721 22.6672V9.33382Z" fill="#31007A"/>
<path d="M12.0055 8.00049H14.6722C15.4085 8.00049 16.0055 8.59744 16.0055 9.33382V12.0005H12.0055V8.00049Z" fill="#8700B8"/>
<path d="M16.0055 14.6671H12.0055V20.0004H0.00549316V22.6671C0.00549316 23.4035 0.602447 24.0004 1.33883 24.0004H14.6722C15.4085 24.0004 16.0055 23.4035 16.0055 22.6671V14.6671Z" fill="#31007A"/>
</svg>
