<svg width="112" height="96" viewBox="0 0 112 96" fill="none" xmlns="http://www.w3.org/2000/svg">
<path d="M61.7375 31.9998L37.9995 55.7379L44.4735 62.2119C46.8572 64.5956 50.7218 64.5956 53.1055 62.2119L79.0015 36.3158C81.3852 33.9321 81.3852 30.0674 79.0015 27.6837L63.8955 12.5776L53.1055 23.3677L61.7375 31.9998Z" fill="#31007A"/>
<path d="M37.9995 8.2618L44.4735 1.78776C46.8572 -0.595919 50.7218 -0.595919 53.1055 1.78776L59.5795 8.2618L48.7895 19.0519L37.9995 8.2618Z" fill="#8700B8"/>
<path d="M94.3367 89.3338H98.3367L98.3367 84.0005L110.337 84.0005L110.337 81.3338C110.337 80.5974 109.74 80.0005 109.003 80.0005L95.67 80.0005C94.9336 80.0005 94.3367 80.5974 94.3367 81.3338L94.3367 89.3338Z" fill="#31007A"/>
<path d="M98.3367 96.0005L95.67 96.0005C94.9336 96.0005 94.3367 95.4035 94.3367 94.6672L94.3367 92.0005L98.3367 92.0005L98.3367 96.0005Z" fill="#8700B8"/>
<path d="M79.6699 92.0005V89.3338H87.6699V86.6672L79.6699 86.6672L79.6699 84.0005L91.6699 84.0005V81.3338C91.6699 80.5974 91.073 80.0005 90.3366 80.0005H77.0033C76.9112 80.0005 76.8213 80.0098 76.7345 80.0276C76.127 80.1519 75.6699 80.6895 75.6699 81.3338V94.6672C75.6699 95.4035 76.2669 96.0005 77.0033 96.0005H90.3366C91.073 96.0005 91.6699 95.4035 91.6699 94.6672V92.0005H79.6699Z" fill="#31007A"/>
<path d="M57.0033 90.0005H61.0033V96.0005H58.3366C57.6002 96.0005 57.0033 95.4035 57.0033 94.6672V90.0005Z" fill="#31007A"/>
<path fill-rule="evenodd" clip-rule="evenodd" d="M58.3366 80.0005C57.6002 80.0005 57.0033 80.5974 57.0033 81.3338V92.0005H69.0033C71.2124 92.0005 73.0033 90.2096 73.0033 88.0005V84.0005C73.0033 81.7913 71.2124 80.0005 69.0033 80.0005H58.3366ZM67.67 84.0005H61.0033V88.0005H67.67C68.4063 88.0005 69.0033 87.4035 69.0033 86.6672V85.3338C69.0033 84.5974 68.4063 84.0005 67.67 84.0005Z" fill="#31007A"/>
<path d="M54.3367 81.3338C54.3367 80.5974 53.7397 80.0005 53.0033 80.0005H39.67C38.9336 80.0005 38.3367 80.5974 38.3367 81.3338V94.6672C38.3367 95.4035 38.9336 96.0005 39.67 96.0005H42.3367L42.3367 84.0005L44.3367 84.0005L44.3367 96.0005H48.3367L48.3367 84.0005L50.3367 84.0005L50.3367 96.0005H53.0033C53.7397 96.0005 54.3367 95.4035 54.3367 94.6672V81.3338Z" fill="#31007A"/>
<path d="M19.6699 81.3338C19.6699 80.5974 20.2669 80.0005 21.0033 80.0005H23.6699V92.0005H31.6699V80.0005H34.3366C35.073 80.0005 35.6699 80.5974 35.6699 81.3338V94.6672C35.6699 95.4035 35.073 96.0005 34.3366 96.0005H21.0033C20.2669 96.0005 19.6699 95.4035 19.6699 94.6672V81.3338Z" fill="#31007A"/>
<path d="M13.0033 80.0005H15.67C16.4063 80.0005 17.0033 80.5974 17.0033 81.3338V84.0005H13.0033V80.0005Z" fill="#8700B8"/>
<path d="M17.0033 86.6671H13.0033V92.0004H1.0033V94.6671C1.0033 95.4035 1.60025 96.0004 2.33663 96.0004H15.67C16.4063 96.0004 17.0033 95.4035 17.0033 94.6671V86.6671Z" fill="#31007A"/>
</svg>
