<svg width="128" height="32" viewBox="0 0 128 32" fill="none" xmlns="http://www.w3.org/2000/svg">
<g clip-path="url(#clip0_1_3277)">
<path d="M18.8688 15.9999L6.99963 27.869L10.2367 31.1061C11.4285 32.2979 13.3609 32.2979 14.5527 31.1061L27.5008 18.1579C28.6927 16.9661 28.6927 15.0337 27.5008 13.8419L19.9478 6.28882L14.5527 11.6839L18.8688 15.9999Z" fill="#31007A"/>
<path d="M6.99963 4.13091L10.2367 0.893882C11.4285 -0.297961 13.3609 -0.297961 14.5527 0.893882L17.7897 4.13091L12.3947 9.52597L6.99963 4.13091Z" fill="#8700B8"/>
</g>
<path d="M111.002 17.0005H114.002L114.002 13.0005L123.002 13.0005L123.002 11.0005C123.002 10.4482 122.555 10.0005 122.002 10.0005L112.002 10.0005C111.45 10.0005 111.002 10.4482 111.002 11.0005L111.002 17.0005Z" fill="#31007A"/>
<path d="M114.002 22.0005L112.002 22.0005C111.45 22.0005 111.002 21.5528 111.002 21.0005L111.002 19.0005L114.002 19.0005L114.002 22.0005Z" fill="#8700B8"/>
<path d="M100.002 19.0005V17.0005H106.002V15.0005L100.002 15.0005L100.002 13.0005L109.002 13.0005V11.0005C109.002 10.4482 108.555 10.0005 108.002 10.0005H98.0023C97.9333 10.0005 97.8659 10.0075 97.8008 10.0208C97.3451 10.1141 97.0023 10.5172 97.0023 11.0005V21.0005C97.0023 21.5528 97.45 22.0005 98.0023 22.0005H108.002C108.555 22.0005 109.002 21.5528 109.002 21.0005V19.0005H100.002Z" fill="#31007A"/>
<path d="M83.0024 17.5005H86.0024V22.0005H84.0024C83.4502 22.0005 83.0024 21.5528 83.0024 21.0005V17.5005Z" fill="#31007A"/>
<path fill-rule="evenodd" clip-rule="evenodd" d="M84.0024 10.0005C83.4502 10.0005 83.0024 10.4482 83.0024 11.0005V19.0005H92.0024C93.6593 19.0005 95.0024 17.6573 95.0024 16.0005V13.0005C95.0024 11.3436 93.6593 10.0005 92.0024 10.0005H84.0024ZM91.0024 13.0005H86.0024V16.0005H91.0024C91.5547 16.0005 92.0024 15.5528 92.0024 15.0005V14.0005C92.0024 13.4482 91.5547 13.0005 91.0024 13.0005Z" fill="#31007A"/>
<path d="M81.0024 11.0005C81.0024 10.4482 80.5547 10.0005 80.0024 10.0005H70.0024C69.4502 10.0005 69.0024 10.4482 69.0024 11.0005V21.0005C69.0024 21.5528 69.4502 22.0005 70.0024 22.0005H72.0024L72.0024 13.0005L73.5024 13.0005L73.5024 22.0005H76.5024L76.5024 13.0005L78.0024 13.0005L78.0024 22.0005H80.0024C80.5547 22.0005 81.0024 21.5528 81.0024 21.0005V11.0005Z" fill="#31007A"/>
<path d="M55.0024 11.0005C55.0024 10.4482 55.4502 10.0005 56.0024 10.0005H58.0024V19.0005H64.0024V10.0005H66.0024C66.5547 10.0005 67.0024 10.4482 67.0024 11.0005V21.0005C67.0024 21.5528 66.5547 22.0005 66.0024 22.0005H56.0024C55.4502 22.0005 55.0024 21.5528 55.0024 21.0005V11.0005Z" fill="#31007A"/>
<path d="M50.0024 10.0005H52.0024C52.5547 10.0005 53.0024 10.4482 53.0024 11.0005V13.0005H50.0024V10.0005Z" fill="#8700B8"/>
<path d="M53.0024 15.0005H50.0024V19.0005H41.0024V21.0005C41.0024 21.5528 41.4502 22.0005 42.0024 22.0005H52.0024C52.5547 22.0005 53.0024 21.5528 53.0024 21.0005V15.0005Z" fill="#31007A"/>
<defs>
<clipPath id="clip0_1_3277">
<rect width="32" height="32" fill="white"/>
</clipPath>
</defs>
</svg>
