<svg width="111" height="32" viewBox="0 0 111 32" fill="none" xmlns="http://www.w3.org/2000/svg">
<path d="M93.3389 17.3338H97.3389L97.3389 12.0005L109.339 12.0005L109.339 9.33382C109.339 8.59744 108.742 8.00049 108.006 8.00049L94.6722 8.00049C93.9358 8.00049 93.3389 8.59744 93.3389 9.33382L93.3389 17.3338Z" fill="#BEA0EB"/>
<path d="M97.3389 24.0005L94.6722 24.0005C93.9358 24.0005 93.3389 23.4035 93.3389 22.6672L93.3389 20.0005L97.3389 20.0005L97.3389 24.0005Z" fill="#D35CFF"/>
<path d="M78.6724 20.0005V17.3338H86.6724V14.6672L78.6724 14.6672L78.6724 12.0005L90.6724 12.0005V9.33382C90.6724 8.59744 90.0754 8.00049 89.339 8.00049H76.0057C75.9136 8.00049 75.8238 8.00982 75.737 8.02758C75.1294 8.15191 74.6724 8.68949 74.6724 9.33382V22.6672C74.6724 23.4035 75.2693 24.0005 76.0057 24.0005H89.339C90.0754 24.0005 90.6724 23.4035 90.6724 22.6672V20.0005H78.6724Z" fill="#BEA0EB"/>
<path d="M56.0056 18.0005H60.0056V24.0005H57.3389C56.6026 24.0005 56.0056 23.4035 56.0056 22.6672V18.0005Z" fill="#BEA0EB"/>
<path fill-rule="evenodd" clip-rule="evenodd" d="M57.3389 8.00049C56.6026 8.00049 56.0056 8.59744 56.0056 9.33382V20.0005H68.0056C70.2148 20.0005 72.0056 18.2096 72.0056 16.0005V12.0005C72.0056 9.79135 70.2148 8.00049 68.0056 8.00049H57.3389ZM66.6723 12.0005H60.0056V16.0005H66.6723C67.4087 16.0005 68.0056 15.4035 68.0056 14.6672V13.3338C68.0056 12.5974 67.4087 12.0005 66.6723 12.0005Z" fill="#BEA0EB"/>
<path d="M53.3389 9.33382C53.3389 8.59744 52.7419 8.00049 52.0055 8.00049H38.6722C37.9358 8.00049 37.3389 8.59744 37.3389 9.33382V22.6672C37.3389 23.4035 37.9358 24.0005 38.6722 24.0005H41.3389L41.3389 12.0005L43.3389 12.0005L43.3389 24.0005H47.3389L47.3389 12.0005L49.3389 12.0005L49.3389 24.0005H52.0055C52.7419 24.0005 53.3389 23.4035 53.3389 22.6672V9.33382Z" fill="#BEA0EB"/>
<path d="M18.6724 9.33382C18.6724 8.59744 19.2693 8.00049 20.0057 8.00049H22.6724V20.0005H30.6724V8.00049H33.339C34.0754 8.00049 34.6724 8.59744 34.6724 9.33382V22.6672C34.6724 23.4035 34.0754 24.0005 33.339 24.0005H20.0057C19.2693 24.0005 18.6724 23.4035 18.6724 22.6672V9.33382Z" fill="#BEA0EB"/>
<path d="M12.0056 8.00049H14.6723C15.4087 8.00049 16.0056 8.59744 16.0056 9.33382V12.0005H12.0056V8.00049Z" fill="#D35CFF"/>
<path d="M16.0056 14.6671H12.0056V20.0004H0.00561523V22.6671C0.00561523 23.4035 0.602569 24.0004 1.33895 24.0004H14.6723C15.4087 24.0004 16.0056 23.4035 16.0056 22.6671V14.6671Z" fill="#BEA0EB"/>
</svg>
