<svg width="113" height="114" viewBox="0 0 113 114" fill="none" xmlns="http://www.w3.org/2000/svg">
<path d="M1.99854 112.131V103.585H7.7567V105.075H3.80526V107.111H7.46045V108.601H3.80526V110.641H7.77339V112.131H1.99854Z" fill="#BEA0EB"/>
<path d="M10.7697 103.585L12.493 106.498H12.5597L14.2913 103.585H16.3317L13.7239 107.858L16.3902 112.131H14.3122L12.5597 109.214H12.493L10.7405 112.131H8.67087L11.3455 107.858L8.72095 103.585H10.7697Z" fill="#BEA0EB"/>
<path d="M24.4958 106.577H22.6682C22.6348 106.341 22.5667 106.131 22.4637 105.947C22.3608 105.761 22.2287 105.602 22.0673 105.471C21.906 105.341 21.7196 105.241 21.5082 105.171C21.2996 105.101 21.0729 105.067 20.8281 105.067C20.3858 105.067 20.0005 105.177 19.6723 105.396C19.344 105.613 19.0895 105.93 18.9087 106.348C18.7279 106.762 18.6375 107.266 18.6375 107.858C18.6375 108.467 18.7279 108.979 18.9087 109.394C19.0923 109.808 19.3482 110.121 19.6764 110.333C20.0047 110.544 20.3844 110.65 20.8156 110.65C21.0576 110.65 21.2815 110.618 21.4873 110.554C21.696 110.49 21.881 110.397 22.0423 110.274C22.2036 110.149 22.3372 109.997 22.4429 109.819C22.5514 109.641 22.6265 109.438 22.6682 109.21L24.4958 109.218C24.4485 109.611 24.3303 109.989 24.1411 110.353C23.9547 110.715 23.703 111.039 23.3859 111.326C23.0715 111.609 22.696 111.835 22.2593 112.002C21.8253 112.166 21.3344 112.248 20.7864 112.248C20.0242 112.248 19.3426 112.075 18.7418 111.73C18.1437 111.385 17.6708 110.886 17.3231 110.232C16.9782 109.579 16.8057 108.787 16.8057 107.858C16.8057 106.926 16.981 106.134 17.3315 105.48C17.6819 104.826 18.1576 104.328 18.7585 103.986C19.3593 103.641 20.0353 103.469 20.7864 103.469C21.2815 103.469 21.7405 103.538 22.1633 103.677C22.5889 103.816 22.9658 104.019 23.2941 104.286C23.6223 104.551 23.8894 104.875 24.0952 105.259C24.3038 105.643 24.4374 106.082 24.4958 106.577Z" fill="#BEA0EB"/>
<path d="M25.6739 112.131V103.585H27.4806V107.111H31.1483V103.585H32.9509V112.131H31.1483V108.601H27.4806V112.131H25.6739Z" fill="#BEA0EB"/>
<path d="M35.7959 112.131H33.8598L36.8098 103.585H39.1381L42.084 112.131H40.1479L38.0074 105.538H37.9406L35.7959 112.131ZM35.6749 108.772H40.248V110.182H35.6749V108.772Z" fill="#BEA0EB"/>
<path d="M50.1427 103.585V112.131H48.5821L44.8643 106.752H44.8018V112.131H42.995V103.585H44.5806L48.2692 108.96H48.3443V103.585H50.1427Z" fill="#BEA0EB"/>
<path d="M57.1843 106.348C57.1259 106.145 57.0438 105.965 56.9381 105.809C56.8324 105.651 56.703 105.517 56.55 105.409C56.3998 105.298 56.2274 105.213 56.0326 105.154C55.8407 105.096 55.6279 105.067 55.3942 105.067C54.9575 105.067 54.5736 105.175 54.2426 105.392C53.9144 105.609 53.6584 105.925 53.4748 106.339C53.2913 106.751 53.1995 107.255 53.1995 107.85C53.1995 108.445 53.2899 108.951 53.4707 109.369C53.6515 109.786 53.9074 110.104 54.2384 110.324C54.5695 110.541 54.9603 110.65 55.4109 110.65C55.8198 110.65 56.1689 110.577 56.4582 110.433C56.7503 110.285 56.9729 110.078 57.1259 109.811C57.2816 109.544 57.3595 109.228 57.3595 108.864L57.7267 108.918H55.5236V107.558H59.0995V108.634C59.0995 109.385 58.9409 110.031 58.6238 110.57C58.3067 111.107 57.87 111.522 57.3136 111.814C56.7573 112.103 56.1203 112.248 55.4026 112.248C54.6014 112.248 53.8977 112.071 53.2913 111.718C52.6848 111.362 52.2119 110.857 51.8726 110.203C51.536 109.547 51.3677 108.768 51.3677 107.867C51.3677 107.174 51.4678 106.556 51.6681 106.014C51.8712 105.469 52.1549 105.007 52.5193 104.629C52.8837 104.25 53.3079 103.962 53.792 103.765C54.276 103.567 54.8003 103.469 55.365 103.469C55.849 103.469 56.2997 103.54 56.7169 103.681C57.1342 103.821 57.5042 104.018 57.8269 104.274C58.1523 104.53 58.418 104.834 58.6238 105.188C58.8297 105.538 58.9618 105.925 59.0202 106.348H57.1843Z" fill="#BEA0EB"/>
<path d="M60.3391 112.131V103.585H66.0973V105.075H62.1458V107.111H65.801V108.601H62.1458V110.641H66.114V112.131H60.3391Z" fill="#BEA0EB"/>
<path d="M70.0182 112.131V103.585H73.4397C74.0684 103.585 74.5927 103.679 75.0128 103.865C75.4328 104.051 75.7485 104.31 75.9599 104.641C76.1714 104.969 76.2771 105.348 76.2771 105.776C76.2771 106.11 76.2103 106.403 76.0768 106.656C75.9433 106.907 75.7597 107.113 75.526 107.274C75.2951 107.433 75.0308 107.545 74.7332 107.612V107.695C75.0587 107.709 75.3633 107.801 75.647 107.971C75.9335 108.141 76.1658 108.378 76.3438 108.684C76.5219 108.988 76.6109 109.349 76.6109 109.769C76.6109 110.223 76.4982 110.627 76.2729 110.983C76.0504 111.337 75.7207 111.616 75.284 111.822C74.8473 112.028 74.309 112.131 73.6692 112.131H70.0182ZM71.8249 110.654H73.2978C73.8013 110.654 74.1685 110.558 74.3994 110.366C74.6303 110.171 74.7457 109.912 74.7457 109.59C74.7457 109.353 74.6887 109.145 74.5746 108.964C74.4606 108.783 74.2979 108.641 74.0865 108.538C73.8778 108.435 73.6289 108.384 73.3396 108.384H71.8249V110.654ZM71.8249 107.161H73.1643C73.4119 107.161 73.6316 107.118 73.8236 107.032C74.0183 106.943 74.1713 106.818 74.2826 106.656C74.3966 106.495 74.4536 106.302 74.4536 106.076C74.4536 105.768 74.3438 105.519 74.124 105.33C73.907 105.14 73.5983 105.046 73.1977 105.046H71.8249V107.161Z" fill="#BEA0EB"/>
<path d="M77.1683 103.585H79.192L81.1406 107.266H81.224L83.1726 103.585H85.1963L82.0794 109.11V112.131H80.2852V109.11L77.1683 103.585Z" fill="#BEA0EB"/>
<path d="M88.6676 112.131V103.585H90.4744V110.641H94.1379V112.131H88.6676Z" fill="#BEA0EB"/>
<path d="M97.0236 103.585V112.131H95.2169V103.585H97.0236Z" fill="#BEA0EB"/>
<path d="M99.3982 112.239C99.1228 112.239 98.8864 112.142 98.6889 111.947C98.4941 111.75 98.3968 111.513 98.3968 111.238C98.3968 110.965 98.4941 110.732 98.6889 110.537C98.8864 110.342 99.1228 110.245 99.3982 110.245C99.6652 110.245 99.8989 110.342 100.099 110.537C100.299 110.732 100.4 110.965 100.4 111.238C100.4 111.422 100.352 111.59 100.258 111.743C100.166 111.893 100.045 112.014 99.8947 112.106C99.7445 112.195 99.579 112.239 99.3982 112.239Z" fill="#BEA0EB"/>
<path d="M101.775 112.131V103.585H107.433V105.075H103.582V107.111H107.057V108.601H103.582V112.131H101.775Z" fill="#BEA0EB"/>
<path d="M110.337 103.585V112.131H108.531V103.585H110.337Z" fill="#BEA0EB"/>
<path d="M61.7385 31.9998L38.0005 55.7379L44.4745 62.2119C46.8581 64.5956 50.7228 64.5956 53.1065 62.2119L79.0025 36.3158C81.3861 33.9321 81.3861 30.0674 79.0025 27.6837L63.8965 12.5776L53.1065 23.3677L61.7385 31.9998Z" fill="#BEA0EB"/>
<path d="M38.0005 8.2618L44.4745 1.78776C46.8581 -0.595919 50.7228 -0.595919 53.1065 1.78776L59.5805 8.2618L48.7905 19.0519L38.0005 8.2618Z" fill="#D35CFF"/>
<path d="M94.8413 89.3338H98.8413L98.8413 84.0005L110.841 84.0005L110.841 81.3338C110.841 80.5974 110.244 80.0005 109.508 80.0005L96.1746 80.0005C95.4383 80.0005 94.8413 80.5974 94.8413 81.3338L94.8413 89.3338Z" fill="#BEA0EB"/>
<path d="M98.8413 96.0005L96.1746 96.0005C95.4383 96.0005 94.8413 95.4035 94.8413 94.6672L94.8413 92.0005L98.8413 92.0005L98.8413 96.0005Z" fill="#D35CFF"/>
<path d="M80.1748 92.0005V89.3338H88.1748V86.6672L80.1748 86.6672L80.1748 84.0005L92.1748 84.0005V81.3338C92.1748 80.5974 91.5779 80.0005 90.8415 80.0005H77.5081C77.4161 80.0005 77.3262 80.0098 77.2394 80.0276C76.6318 80.1519 76.1748 80.6895 76.1748 81.3338V94.6672C76.1748 95.4035 76.7718 96.0005 77.5081 96.0005H90.8415C91.5779 96.0005 92.1748 95.4035 92.1748 94.6672V92.0005H80.1748Z" fill="#BEA0EB"/>
<path d="M57.5081 90.0005H61.5081V96.0005H58.8414C58.105 96.0005 57.5081 95.4035 57.5081 94.6672V90.0005Z" fill="#BEA0EB"/>
<path fill-rule="evenodd" clip-rule="evenodd" d="M58.8414 80.0005C58.105 80.0005 57.5081 80.5974 57.5081 81.3338V92.0005H69.5081C71.7172 92.0005 73.5081 90.2096 73.5081 88.0005V84.0005C73.5081 81.7913 71.7172 80.0005 69.5081 80.0005H58.8414ZM68.1747 84.0005H61.5081V88.0005H68.1747C68.9111 88.0005 69.5081 87.4035 69.5081 86.6672V85.3338C69.5081 84.5974 68.9111 84.0005 68.1747 84.0005Z" fill="#BEA0EB"/>
<path d="M54.8413 81.3338C54.8413 80.5974 54.2444 80.0005 53.508 80.0005H40.1746C39.4383 80.0005 38.8413 80.5974 38.8413 81.3338V94.6672C38.8413 95.4035 39.4383 96.0005 40.1746 96.0005H42.8413L42.8413 84.0005L44.8413 84.0005L44.8413 96.0005H48.8413L48.8413 84.0005L50.8413 84.0005L50.8413 96.0005H53.508C54.2444 96.0005 54.8413 95.4035 54.8413 94.6672V81.3338Z" fill="#BEA0EB"/>
<path d="M20.1748 81.3338C20.1748 80.5974 20.7718 80.0005 21.5081 80.0005H24.1748V92.0005H32.1748V80.0005H34.8415C35.5779 80.0005 36.1748 80.5974 36.1748 81.3338V94.6672C36.1748 95.4035 35.5779 96.0005 34.8415 96.0005H21.5081C20.7718 96.0005 20.1748 95.4035 20.1748 94.6672V81.3338Z" fill="#BEA0EB"/>
<path d="M13.5081 80.0005H16.1747C16.9111 80.0005 17.5081 80.5974 17.5081 81.3338V84.0005H13.5081V80.0005Z" fill="#D35CFF"/>
<path d="M17.5081 86.6671H13.5081V92.0004H1.50806V94.6671C1.50806 95.4035 2.10501 96.0004 2.84139 96.0004H16.1747C16.9111 96.0004 17.5081 95.4035 17.5081 94.6671V86.6671Z" fill="#BEA0EB"/>
</svg>
