<svg width="113" height="96" viewBox="0 0 113 96" fill="none" xmlns="http://www.w3.org/2000/svg">
<path d="M61.7375 31.9998L37.9995 55.7379L44.4735 62.2119C46.8572 64.5956 50.7218 64.5956 53.1055 62.2119L79.0015 36.3158C81.3852 33.9321 81.3852 30.0674 79.0015 27.6837L63.8955 12.5776L53.1055 23.3677L61.7375 31.9998Z" fill="#BEA0EB"/>
<path d="M37.9995 8.2618L44.4735 1.78776C46.8572 -0.595919 50.7218 -0.595919 53.1055 1.78776L59.5795 8.2618L48.7895 19.0519L37.9995 8.2618Z" fill="#D35CFF"/>
<path d="M94.3369 89.3338H98.3369L98.3369 84.0005L110.337 84.0005L110.337 81.3338C110.337 80.5974 109.74 80.0005 109.004 80.0005L95.6702 80.0005C94.9339 80.0005 94.3369 80.5974 94.3369 81.3338L94.3369 89.3338Z" fill="#BEA0EB"/>
<path d="M98.3369 96.0005L95.6702 96.0005C94.9339 96.0005 94.3369 95.4035 94.3369 94.6672L94.3369 92.0005L98.3369 92.0005L98.3369 96.0005Z" fill="#D35CFF"/>
<path d="M79.6699 92.0005V89.3338H87.6699V86.6672L79.6699 86.6672L79.6699 84.0005L91.6699 84.0005V81.3338C91.6699 80.5974 91.073 80.0005 90.3366 80.0005H77.0033C76.9112 80.0005 76.8213 80.0098 76.7345 80.0276C76.127 80.1519 75.6699 80.6895 75.6699 81.3338V94.6672C75.6699 95.4035 76.2669 96.0005 77.0033 96.0005H90.3366C91.073 96.0005 91.6699 95.4035 91.6699 94.6672V92.0005H79.6699Z" fill="#BEA0EB"/>
<path d="M57.0034 90.0005H61.0034V96.0005H58.3368C57.6004 96.0005 57.0034 95.4035 57.0034 94.6672V90.0005Z" fill="#BEA0EB"/>
<path fill-rule="evenodd" clip-rule="evenodd" d="M58.3368 80.0005C57.6004 80.0005 57.0034 80.5974 57.0034 81.3338V92.0005H69.0034C71.2126 92.0005 73.0034 90.2096 73.0034 88.0005V84.0005C73.0034 81.7913 71.2126 80.0005 69.0034 80.0005H58.3368ZM67.6701 84.0005H61.0034V88.0005H67.6701C68.4065 88.0005 69.0034 87.4035 69.0034 86.6672V85.3338C69.0034 84.5974 68.4065 84.0005 67.6701 84.0005Z" fill="#BEA0EB"/>
<path d="M54.3369 81.3338C54.3369 80.5974 53.74 80.0005 53.0036 80.0005H39.6702C38.9339 80.0005 38.3369 80.5974 38.3369 81.3338V94.6672C38.3369 95.4035 38.9339 96.0005 39.6702 96.0005H42.3369L42.3369 84.0005L44.3369 84.0005L44.3369 96.0005H48.3369L48.3369 84.0005L50.3369 84.0005L50.3369 96.0005H53.0036C53.74 96.0005 54.3369 95.4035 54.3369 94.6672V81.3338Z" fill="#BEA0EB"/>
<path d="M19.6702 81.3338C19.6702 80.5974 20.2671 80.0005 21.0035 80.0005H23.6702V92.0005H31.6702V80.0005H34.3368C35.0732 80.0005 35.6702 80.5974 35.6702 81.3338V94.6672C35.6702 95.4035 35.0732 96.0005 34.3368 96.0005H21.0035C20.2671 96.0005 19.6702 95.4035 19.6702 94.6672V81.3338Z" fill="#BEA0EB"/>
<path d="M13.0034 80.0005H15.6701C16.4065 80.0005 17.0034 80.5974 17.0034 81.3338V84.0005H13.0034V80.0005Z" fill="#D35CFF"/>
<path d="M17.0034 86.6671H13.0034V92.0004H1.00342V94.6671C1.00342 95.4035 1.60037 96.0004 2.33675 96.0004H15.6701C16.4065 96.0004 17.0034 95.4035 17.0034 94.6671V86.6671Z" fill="#BEA0EB"/>
</svg>
