<svg width="129" height="32" viewBox="0 0 129 32" fill="none" xmlns="http://www.w3.org/2000/svg">
<g clip-path="url(#clip0_197_1750)">
<path d="M18.8686 15.9998L6.99951 27.8689L10.2365 31.1059C11.4284 32.2978 13.3607 32.2978 14.5526 31.1059L27.5007 18.1578C28.6926 16.966 28.6926 15.0336 27.5007 13.8418L19.9476 6.2887L14.5526 11.6838L18.8686 15.9998Z" fill="#BEA0EB"/>
<path d="M6.99951 4.13079L10.2365 0.89376C11.4284 -0.298083 13.3607 -0.298083 14.5526 0.89376L17.7896 4.13079L12.3946 9.52585L6.99951 4.13079Z" fill="#D35CFF"/>
</g>
<path d="M111.003 17.0004H114.003L114.003 13.0004L123.003 13.0004L123.003 11.0004C123.003 10.4481 122.555 10.0004 122.003 10.0004L112.003 10.0004C111.45 10.0004 111.003 10.4481 111.003 11.0004L111.003 17.0004Z" fill="#BEA0EB"/>
<path d="M114.003 22.0004L112.003 22.0004C111.45 22.0004 111.003 21.5527 111.003 21.0004L111.003 19.0004L114.003 19.0004L114.003 22.0004Z" fill="#D35CFF"/>
<path d="M100.003 19.0004V17.0004H106.003V15.0004L100.003 15.0004L100.003 13.0004L109.003 13.0004V11.0004C109.003 10.4481 108.555 10.0004 108.003 10.0004H98.0027C97.9337 10.0004 97.8662 10.0074 97.8012 10.0207C97.3455 10.1139 97.0027 10.5171 97.0027 11.0004V21.0004C97.0027 21.5527 97.4504 22.0004 98.0027 22.0004H108.003C108.555 22.0004 109.003 21.5527 109.003 21.0004V19.0004H100.003Z" fill="#BEA0EB"/>
<path d="M83.0027 17.5004H86.0027V22.0004H84.0027C83.4504 22.0004 83.0027 21.5527 83.0027 21.0004V17.5004Z" fill="#BEA0EB"/>
<path fill-rule="evenodd" clip-rule="evenodd" d="M84.0027 10.0004C83.4504 10.0004 83.0027 10.4481 83.0027 11.0004V19.0004H92.0027C93.6595 19.0004 95.0027 17.6572 95.0027 16.0004V13.0004C95.0027 11.3435 93.6595 10.0004 92.0027 10.0004H84.0027ZM91.0027 13.0004H86.0027V16.0004H91.0027C91.555 16.0004 92.0027 15.5527 92.0027 15.0004V14.0004C92.0027 13.4481 91.555 13.0004 91.0027 13.0004Z" fill="#BEA0EB"/>
<path d="M81.0027 11.0004C81.0027 10.4481 80.555 10.0004 80.0027 10.0004H70.0027C69.4504 10.0004 69.0027 10.4481 69.0027 11.0004V21.0004C69.0027 21.5527 69.4504 22.0004 70.0027 22.0004H72.0027L72.0027 13.0004L73.5027 13.0004L73.5027 22.0004H76.5027L76.5027 13.0004L78.0027 13.0004L78.0027 22.0004H80.0027C80.555 22.0004 81.0027 21.5527 81.0027 21.0004V11.0004Z" fill="#BEA0EB"/>
<path d="M55.0027 11.0004C55.0027 10.4481 55.4504 10.0004 56.0027 10.0004H58.0027V19.0004H64.0027V10.0004H66.0027C66.555 10.0004 67.0027 10.4481 67.0027 11.0004V21.0004C67.0027 21.5527 66.555 22.0004 66.0027 22.0004H56.0027C55.4504 22.0004 55.0027 21.5527 55.0027 21.0004V11.0004Z" fill="#BEA0EB"/>
<path d="M50.0027 10.0004H52.0027C52.555 10.0004 53.0027 10.4481 53.0027 11.0004V13.0004H50.0027V10.0004Z" fill="#D35CFF"/>
<path d="M53.0027 15.0004H50.0027V19.0004H41.0027V21.0004C41.0027 21.5527 41.4504 22.0004 42.0027 22.0004H52.0027C52.555 22.0004 53.0027 21.5527 53.0027 21.0004V15.0004Z" fill="#BEA0EB"/>
<defs>
<clipPath id="clip0_197_1750">
<rect width="32" height="32" fill="white"/>
</clipPath>
</defs>
</svg>
