<svg width="129" height="32" viewBox="0 0 129 32" fill="none" xmlns="http://www.w3.org/2000/svg">
<g clip-path="url(#clip0_197_1757)">
<path d="M18.875 15.9998L7.00586 27.8689L10.2429 31.1059C11.4347 32.2978 13.3671 32.2978 14.5589 31.1059L27.5071 18.1578C28.6989 16.966 28.6989 15.0336 27.5071 13.8418L19.954 6.2887L14.5589 11.6838L18.875 15.9998Z" fill="#BEA0EB"/>
<path d="M7.00586 4.13079L10.2429 0.89376C11.4347 -0.298083 13.3671 -0.298083 14.5589 0.89376L17.796 4.13079L12.4009 9.52585L7.00586 4.13079Z" fill="#D35CFF"/>
</g>
<path d="M111.009 13.0004H114.009L114.009 9.00037L123.009 9.00037L123.009 7.00037C123.009 6.44808 122.561 6.00037 122.009 6.00037L112.009 6.00037C111.457 6.00037 111.009 6.44808 111.009 7.00037L111.009 13.0004Z" fill="#BEA0EB"/>
<path d="M114.009 18.0004L112.009 18.0004C111.457 18.0004 111.009 17.5527 111.009 17.0004L111.009 15.0004L114.009 15.0004L114.009 18.0004Z" fill="#D35CFF"/>
<path d="M100.009 15.0004V13.0004H106.009V11.0004L100.009 11.0004L100.009 9.00037L109.009 9.00037V7.00037C109.009 6.44808 108.561 6.00037 108.009 6.00037H98.009C97.94 6.00037 97.8726 6.00736 97.8075 6.02068C97.3518 6.11393 97.009 6.51712 97.009 7.00037V17.0004C97.009 17.5527 97.4567 18.0004 98.009 18.0004H108.009C108.561 18.0004 109.009 17.5527 109.009 17.0004V15.0004H100.009Z" fill="#BEA0EB"/>
<path d="M83.009 13.5004H86.009V18.0004H84.009C83.4567 18.0004 83.009 17.5527 83.009 17.0004V13.5004Z" fill="#BEA0EB"/>
<path fill-rule="evenodd" clip-rule="evenodd" d="M84.009 6.00037C83.4567 6.00037 83.009 6.44808 83.009 7.00037V15.0004H92.009C93.6659 15.0004 95.009 13.6572 95.009 12.0004V9.00037C95.009 7.34351 93.6659 6.00037 92.009 6.00037H84.009ZM91.009 9.00037H86.009V12.0004H91.009C91.5613 12.0004 92.009 11.5527 92.009 11.0004V10.0004C92.009 9.44808 91.5613 9.00037 91.009 9.00037Z" fill="#BEA0EB"/>
<path d="M81.009 7.00037C81.009 6.44808 80.5613 6.00037 80.009 6.00037H70.009C69.4567 6.00037 69.009 6.44808 69.009 7.00037V17.0004C69.009 17.5527 69.4567 18.0004 70.009 18.0004H72.009L72.009 9.00037L73.509 9.00037L73.509 18.0004H76.509L76.509 9.00037L78.009 9.00037L78.009 18.0004H80.009C80.5613 18.0004 81.009 17.5527 81.009 17.0004V7.00037Z" fill="#BEA0EB"/>
<path d="M55.009 7.00037C55.009 6.44808 55.4567 6.00037 56.009 6.00037H58.009V15.0004H64.009V6.00037H66.009C66.5613 6.00037 67.009 6.44808 67.009 7.00037V17.0004C67.009 17.5527 66.5613 18.0004 66.009 18.0004H56.009C55.4567 18.0004 55.009 17.5527 55.009 17.0004V7.00037Z" fill="#BEA0EB"/>
<path d="M50.009 6.00037H52.009C52.5613 6.00037 53.009 6.44808 53.009 7.00037V9.00037H50.009V6.00037Z" fill="#D35CFF"/>
<path d="M53.009 11.0004H50.009V15.0004H41.009V17.0004C41.009 17.5527 41.4567 18.0004 42.009 18.0004H52.009C52.5613 18.0004 53.009 17.5527 53.009 17.0004V11.0004Z" fill="#BEA0EB"/>
<path d="M41.0044 28.8976V23.0794H44.9248V24.0936H42.2345V25.48H44.7231V26.4942H42.2345V27.8834H44.9362V28.8976H41.0044Z" fill="#BEA0EB"/>
<path d="M46.9762 23.0794L48.1495 25.0624H48.195L49.374 23.0794H50.7632L48.9876 25.9885L50.8029 28.8976H49.3882L48.195 26.9118H48.1495L46.9564 28.8976H45.5473L47.3683 25.9885L45.5814 23.0794H46.9762Z" fill="#BEA0EB"/>
<path d="M56.3217 25.1164H55.0773C55.0546 24.9554 55.0082 24.8124 54.9381 24.6874C54.8681 24.5605 54.7781 24.4525 54.6683 24.3635C54.5584 24.2745 54.4315 24.2063 54.2876 24.159C54.1455 24.1116 53.9912 24.0879 53.8245 24.0879C53.5234 24.0879 53.2611 24.1628 53.0376 24.3124C52.8141 24.4601 52.6408 24.676 52.5177 24.9601C52.3946 25.2423 52.333 25.5851 52.333 25.9885C52.333 26.4033 52.3946 26.7518 52.5177 27.034C52.6427 27.3162 52.8169 27.5292 53.0404 27.6732C53.2639 27.8171 53.5224 27.8891 53.816 27.8891C53.9808 27.8891 54.1332 27.8673 54.2734 27.8237C54.4154 27.7802 54.5414 27.7167 54.6512 27.6334C54.7611 27.5482 54.852 27.445 54.9239 27.3237C54.9978 27.2025 55.0489 27.0643 55.0773 26.909L56.3217 26.9147C56.2895 27.1817 56.209 27.4393 56.0802 27.6874C55.9533 27.9336 55.7819 28.1542 55.566 28.3493C55.352 28.5425 55.0963 28.6959 54.7989 28.8095C54.5035 28.9213 54.1692 28.9772 53.7961 28.9772C53.2772 28.9772 52.8131 28.8597 52.4041 28.6249C51.9969 28.39 51.6749 28.0501 51.4381 27.605C51.2033 27.1599 51.0859 26.6211 51.0859 25.9885C51.0859 25.354 51.2052 24.8143 51.4438 24.3692C51.6825 23.9241 52.0063 23.5851 52.4154 23.3522C52.8245 23.1173 53.2847 22.9999 53.7961 22.9999C54.1332 22.9999 54.4457 23.0472 54.7336 23.1419C55.0234 23.2366 55.28 23.3749 55.5035 23.5567C55.727 23.7366 55.9088 23.9573 56.0489 24.2186C56.191 24.48 56.2819 24.7792 56.3217 25.1164Z" fill="#BEA0EB"/>
<path d="M57.1238 28.8976V23.0794H58.3539V25.48H60.851V23.0794H62.0783V28.8976H60.851V26.4942H58.3539V28.8976H57.1238Z" fill="#BEA0EB"/>
<path d="M64.0154 28.8976H62.6972L64.7057 23.0794H66.2909L68.2966 28.8976H66.9784L65.521 24.409H65.4756L64.0154 28.8976ZM63.933 26.6107H67.0466V27.5709H63.933V26.6107Z" fill="#BEA0EB"/>
<path d="M73.7834 23.0794V28.8976H72.7209L70.1896 25.2357H70.147V28.8976H68.9169V23.0794H69.9964L72.5078 26.7385H72.5589V23.0794H73.7834Z" fill="#BEA0EB"/>
<path d="M78.5777 24.9601C78.5379 24.8218 78.482 24.6997 78.41 24.5936C78.3381 24.4857 78.25 24.3948 78.1458 24.3209C78.0436 24.2451 77.9261 24.1874 77.7936 24.1476C77.6629 24.1078 77.518 24.0879 77.3589 24.0879C77.0616 24.0879 76.8002 24.1618 76.5748 24.3095C76.3513 24.4573 76.1771 24.6722 76.0521 24.9544C75.9271 25.2347 75.8646 25.5775 75.8646 25.9828C75.8646 26.3881 75.9261 26.7328 76.0493 27.0169C76.1724 27.301 76.3466 27.5179 76.572 27.6675C76.7974 27.8152 77.0635 27.8891 77.3703 27.8891C77.6487 27.8891 77.8864 27.8398 78.0833 27.7414C78.2822 27.641 78.4337 27.4999 78.5379 27.3181C78.644 27.1362 78.697 26.9213 78.697 26.6732L78.947 26.7101H77.447V25.784H79.8816V26.5169C79.8816 27.0283 79.7737 27.4677 79.5578 27.8351C79.3419 28.2006 79.0445 28.4828 78.6657 28.6817C78.2869 28.8787 77.8532 28.9772 77.3646 28.9772C76.8191 28.9772 76.34 28.8569 75.9271 28.6164C75.5142 28.3739 75.1922 28.0302 74.9612 27.5851C74.732 27.1381 74.6174 26.6078 74.6174 25.9942C74.6174 25.5226 74.6856 25.1022 74.822 24.7328C74.9602 24.3616 75.1534 24.0472 75.4015 23.7897C75.6496 23.5321 75.9385 23.3361 76.268 23.2016C76.5975 23.0671 76.9546 22.9999 77.339 22.9999C77.6686 22.9999 77.9754 23.0482 78.2595 23.1448C78.5436 23.2395 78.7955 23.3739 79.0152 23.5482C79.2368 23.7224 79.4176 23.9298 79.5578 24.1703C79.6979 24.409 79.7879 24.6722 79.8277 24.9601H78.5777Z" fill="#BEA0EB"/>
<path d="M80.7256 28.8976V23.0794H84.6461V24.0936H81.9558V25.48H84.4444V26.4942H81.9558V27.8834H84.6575V28.8976H80.7256Z" fill="#BEA0EB"/>
<path d="M87.3156 28.8976V23.0794H89.6452C90.0732 23.0794 90.4302 23.1429 90.7162 23.2698C91.0022 23.3967 91.2172 23.5728 91.3611 23.7982C91.505 24.0217 91.577 24.2792 91.577 24.5709C91.577 24.7982 91.5316 24.998 91.4406 25.1703C91.3497 25.3408 91.2247 25.4809 91.0656 25.5908C90.9085 25.6987 90.7285 25.7754 90.5259 25.8209V25.8777C90.7475 25.8872 90.9548 25.9497 91.148 26.0652C91.3431 26.1807 91.5013 26.3427 91.6225 26.551C91.7437 26.7575 91.8043 27.0037 91.8043 27.2897C91.8043 27.5984 91.7276 27.8739 91.5742 28.1164C91.4227 28.3569 91.1982 28.5472 90.9009 28.6874C90.6035 28.8275 90.237 28.8976 89.8014 28.8976H87.3156ZM88.5458 27.8919H89.5486C89.8914 27.8919 90.1414 27.8266 90.2986 27.6959C90.4558 27.5633 90.5344 27.3872 90.5344 27.1675C90.5344 27.0065 90.4956 26.8645 90.4179 26.7414C90.3403 26.6182 90.2295 26.5217 90.0855 26.4516C89.9435 26.3815 89.774 26.3465 89.577 26.3465H88.5458V27.8919ZM88.5458 25.5141H89.4577C89.6263 25.5141 89.7759 25.4847 89.9066 25.426C90.0391 25.3654 90.1433 25.2802 90.2191 25.1703C90.2967 25.0605 90.3355 24.9289 90.3355 24.7754C90.3355 24.5652 90.2607 24.3957 90.1111 24.2669C89.9634 24.1381 89.7531 24.0737 89.4804 24.0737H88.5458V25.5141Z" fill="#BEA0EB"/>
<path d="M92.1838 23.0794H93.5616L94.8883 25.5851H94.9452L96.2719 23.0794H97.6497L95.5275 26.8408V28.8976H94.306V26.8408L92.1838 23.0794Z" fill="#BEA0EB"/>
<path d="M100.013 28.8976V23.0794H101.243V27.8834H103.738V28.8976H100.013Z" fill="#BEA0EB"/>
<path d="M105.702 23.0794V28.8976H104.472V23.0794H105.702Z" fill="#BEA0EB"/>
<path d="M107.319 28.9715C107.132 28.9715 106.971 28.9052 106.836 28.7726C106.704 28.6381 106.637 28.4772 106.637 28.2897C106.637 28.104 106.704 27.945 106.836 27.8124C106.971 27.6798 107.132 27.6135 107.319 27.6135C107.501 27.6135 107.66 27.6798 107.796 27.8124C107.933 27.945 108.001 28.104 108.001 28.2897C108.001 28.4147 107.969 28.5292 107.904 28.6334C107.842 28.7357 107.759 28.8181 107.657 28.8806C107.555 28.9412 107.442 28.9715 107.319 28.9715Z" fill="#BEA0EB"/>
<path d="M108.937 28.8976V23.0794H112.789V24.0936H110.167V25.48H112.534V26.4942H110.167V28.8976H108.937Z" fill="#BEA0EB"/>
<path d="M114.767 23.0794V28.8976H113.537V23.0794H114.767Z" fill="#BEA0EB"/>
<defs>
<clipPath id="clip0_197_1757">
<rect width="32" height="32" fill="white" transform="translate(0.00610352 -0.00012207)"/>
</clipPath>
</defs>
</svg>
